# xmcd CD database file
#
# Track frame offsets:
#	150
#	16227
#	36912
#	55963
#	71228
#	98729
#	120549
#	144316
#	161974
#	178329
#	189049
#	206839
#	222853
#	235321
#	255159
#
# Disc length: 3597 seconds
#
# Revision: 0
# Processed by: cddbd v1.5.1PL2 Copyright (c) Steve Scherf et al.
# Submitted via: CDex 1.51
#
DISCID=d60e0b0f
DTITLE=Alice Gomez - Obsidian Butterfly
DYEAR=1999
DGENRE=New Age
TTITLE0=celestial dancer
TTITLE1=pyramid temples
TTITLE2=voices of the wind
TTITLE3=the ancient ones
TTITLE4=ghost dance
TTITLE5=passage to mesoamerica
TTITLE6=sacred landscapes
TTITLE7=path of dreams
TTITLE8=eagles flight
TTITLE9=obsidian butterfly
TTITLE10=spirits of the earth
TTITLE11=soul healer
TTITLE12=cloud serpent
TTITLE13=searching for the aztecs
TTITLE14=the concheros
EXTD=YEAR: 1999
EXTT0=
EXTT1=
EXTT2=
EXTT3=
EXTT4=
EXTT5=
EXTT6=
EXTT7=
EXTT8=
EXTT9=
EXTT10=
EXTT11=
EXTT12=
EXTT13=
EXTT14=
PLAYORDER=
